<svg width="24" height="24" viewBox="0 0 24 24" fill="none" xmlns="http://www.w3.org/2000/svg">
<path d="M12.7199 18.3024C12.5959 18.5145 12.418 18.6907 12.2039 18.8131C11.9898 18.9356 11.7471 19 11.5 19C11.253 19 11.0102 18.9356 10.7961 18.8131C10.582 18.6907 10.4041 18.5145 10.2801 18.3024M9.73718 6.75031L10.2801 5.69764C10.4041 5.48545 10.582 5.30932 10.7961 5.18688C11.0102 5.06444 11.2529 5 11.5 5C11.747 5 11.9898 5.06444 12.2039 5.18688C12.418 5.30932 12.5959 5.48545 12.7199 5.69764L13.2628 6.75031M15.7308 10.601C15.7308 9.48688 15.285 8.41841 14.4916 7.63062C13.6982 6.84282 12.6221 6.40025 11.5 6.40025C10.3779 6.40025 9.30182 6.84282 8.50839 7.63062C7.71497 8.41841 7.26923 9.48688 7.26923 10.601C7.26923 15.5019 6 16.9021 6 16.9021H17C17 16.9021 15.7308 15.5019 15.7308 10.601Z" stroke="#333333" stroke-width="1.5" stroke-linecap="round" stroke-linejoin="round"/>
<circle cx="18" cy="6" r="3" fill="#CA1B1B"/>
</svg>
