<svg width="14" height="14" viewBox="0 0 14 14" fill="none" xmlns="http://www.w3.org/2000/svg">
<path d="M7.64849 9.74504V12.8333L8.94478 11.8039L10.2411 12.8333V9.74504M5.70403 10.7745H2.46329C2.11949 10.7745 1.78977 10.6299 1.54667 10.3725C1.30357 10.1151 1.16699 9.76599 1.16699 9.40196V2.53918C1.16699 1.78428 1.75033 1.16663 2.46329 1.16663H11.5374C11.8812 1.16663 12.2109 1.31123 12.454 1.56864C12.6971 1.82604 12.8337 2.17516 12.8337 2.53918V9.40196C12.8334 9.64266 12.7734 9.87906 12.6597 10.0874C12.5459 10.2958 12.3824 10.4689 12.1855 10.5892M3.11144 3.91171H10.8892M3.11144 5.97054H5.05588M3.11144 8.02938H4.40773M10.8892 8.02938C10.8892 9.16644 10.0187 10.0882 8.94477 10.0882C7.87088 10.0882 7.00033 9.16644 7.00033 8.02938C7.00033 6.89231 7.87088 5.97054 8.94477 5.97054C10.0187 5.97054 10.8892 6.89231 10.8892 8.02938Z" stroke="#666666" stroke-width="1.5" stroke-linecap="round" stroke-linejoin="round"/>
</svg>
