<svg width="24" height="24" viewBox="0 0 24 24" fill="none" xmlns="http://www.w3.org/2000/svg">
<path d="M15.6 8.36842C17.0322 8.36842 18.4057 8.93402 19.4184 9.9408C20.4311 10.9476 21 12.313 21 13.7368V20H17.4V13.7368C17.4 13.2622 17.2104 12.8071 16.8728 12.4715C16.5352 12.1359 16.0774 11.9474 15.6 11.9474C15.1226 11.9474 14.6648 12.1359 14.3272 12.4715C13.9896 12.8071 13.8 13.2622 13.8 13.7368V20H10.2V13.7368C10.2 12.313 10.7689 10.9476 11.7816 9.9408C12.7943 8.93402 14.1678 8.36842 15.6 8.36842Z" stroke="#333333" stroke-width="1.5" stroke-linecap="round" stroke-linejoin="round"/>
<path d="M6.6 9.26316H3V20H6.6V9.26316Z" stroke="#333333" stroke-width="1.5" stroke-linecap="round" stroke-linejoin="round"/>
<path d="M4.8 6.57895C5.79411 6.57895 6.6 5.77777 6.6 4.78947C6.6 3.80117 5.79411 3 4.8 3C3.80589 3 3 3.80117 3 4.78947C3 5.77777 3.80589 6.57895 4.8 6.57895Z" stroke="#333333" stroke-width="1.5" stroke-linecap="round" stroke-linejoin="round"/>
</svg>
