<svg width="14" height="14" viewBox="0 0 14 14" fill="none" xmlns="http://www.w3.org/2000/svg">
<path d="M1.81514 3.75922H3.75959C3.93148 3.75922 4.09634 3.69093 4.2179 3.56938C4.33945 3.44783 4.40773 3.28297 4.40773 3.11107V2.46292C4.40773 2.11912 4.54431 1.78941 4.78741 1.5463C5.03051 1.3032 5.36023 1.16663 5.70403 1.16663C6.04783 1.16663 6.37755 1.3032 6.62065 1.5463C6.86375 1.78941 7.00033 2.11912 7.00033 2.46292V3.11107C7.00033 3.28297 7.06861 3.44783 7.19016 3.56938C7.31172 3.69093 7.47657 3.75922 7.64847 3.75922H9.59292C9.76482 3.75922 9.92968 3.82751 10.0512 3.94906C10.1728 4.07061 10.2411 4.23547 10.2411 4.40737V6.35181C10.2411 6.52371 10.3094 6.68857 10.4309 6.81012C10.5525 6.93167 10.7173 6.99996 10.8892 6.99996H11.5374C11.8812 6.99996 12.2109 7.13653 12.454 7.37964C12.6971 7.62274 12.8337 7.95246 12.8337 8.29626C12.8337 8.64006 12.6971 8.96977 12.454 9.21288C12.2109 9.45598 11.8812 9.59255 11.5374 9.59255H10.8892C10.7173 9.59255 10.5525 9.66084 10.4309 9.78239C10.3094 9.90394 10.2411 10.0688 10.2411 10.2407V12.1851C10.2411 12.357 10.1728 12.5219 10.0512 12.6435C9.92968 12.765 9.76482 12.8333 9.59292 12.8333H7.64847C7.47657 12.8333 7.31172 12.765 7.19016 12.6435C7.06861 12.5219 7.00033 12.357 7.00033 12.1851V11.537C7.00033 11.1932 6.86375 10.8635 6.62065 10.6204C6.37755 10.3773 6.04783 10.2407 5.70403 10.2407C5.36023 10.2407 5.03051 10.3773 4.78741 10.6204C4.54431 10.8635 4.40773 11.1932 4.40773 11.537V12.1851C4.40773 12.357 4.33945 12.5219 4.2179 12.6435C4.09634 12.765 3.93148 12.8333 3.75959 12.8333H1.81514C1.64324 12.8333 1.47838 12.765 1.35683 12.6435C1.23528 12.5219 1.16699 12.357 1.16699 12.1851V10.2407C1.16699 10.0688 1.23528 9.90394 1.35683 9.78239C1.47838 9.66084 1.64324 9.59255 1.81514 9.59255H2.46329C2.80709 9.59255 3.13681 9.45598 3.37991 9.21288C3.62301 8.96977 3.75959 8.64006 3.75959 8.29626C3.75959 7.95246 3.62301 7.62274 3.37991 7.37964C3.13681 7.13653 2.80709 6.99996 2.46329 6.99996H1.81514C1.64324 6.99996 1.47838 6.93167 1.35683 6.81012C1.23528 6.68857 1.16699 6.52371 1.16699 6.35181V4.40737C1.16699 4.23547 1.23528 4.07061 1.35683 3.94906C1.47838 3.82751 1.64324 3.75922 1.81514 3.75922" stroke="#666666" stroke-width="1.5" stroke-linecap="round" stroke-linejoin="round"/>
</svg>
