<svg width="17" height="16" viewBox="0 0 17 16" fill="none" xmlns="http://www.w3.org/2000/svg">
<path d="M5.93331 6.98887L11.0666 4.34443M5.93331 9.0111L11.0666 11.6555M6.16667 8C6.16667 9.28866 5.122 10.3333 3.83333 10.3333C2.54467 10.3333 1.5 9.28866 1.5 8C1.5 6.71134 2.54467 5.66667 3.83333 5.66667C5.122 5.66667 6.16667 6.71134 6.16667 8ZM15.5 3.33333C15.5 4.622 14.4553 5.66667 13.1667 5.66667C11.878 5.66667 10.8333 4.622 10.8333 3.33333C10.8333 2.04467 11.878 1 13.1667 1C14.4553 1 15.5 2.04467 15.5 3.33333ZM15.5 12.6667C15.5 13.9553 14.4553 15 13.1667 15C11.878 15 10.8333 13.9553 10.8333 12.6667C10.8333 11.378 11.878 10.3333 13.1667 10.3333C14.4553 10.3333 15.5 11.378 15.5 12.6667Z" stroke="#98CA1B" stroke-width="1.5" stroke-linecap="round" stroke-linejoin="round"/>
</svg>
