<svg width="24" height="24" viewBox="0 0 24 24" fill="none" xmlns="http://www.w3.org/2000/svg">
<path d="M20 5.00785C19.26 5.53487 18.4407 5.93795 17.5736 6.20158C17.1083 5.66129 16.4898 5.27834 15.8018 5.10454C15.1138 4.93073 14.3896 4.97445 13.7271 5.22978C13.0645 5.48511 12.4956 5.93974 12.0973 6.53217C11.699 7.1246 11.4905 7.82626 11.5 8.54224V9.32246C10.142 9.35801 8.79644 9.05391 7.58305 8.43726C6.36967 7.8206 5.32615 6.91052 4.54545 5.78806C4.54545 5.78806 1.45455 12.81 8.40909 15.9309C6.81768 17.0216 4.92189 17.5685 3 17.4913C9.95455 21.3924 18.4545 17.4913 18.4545 8.51883C18.4538 8.3015 18.4331 8.08471 18.3927 7.87125C19.1814 7.08595 19.7379 6.09447 20 5.00785V5.00785Z" stroke="#333333" stroke-width="1.5" stroke-linecap="round" stroke-linejoin="round"/>
</svg>
