<svg width="32" height="36" viewBox="0 0 32 36" fill="none" xmlns="http://www.w3.org/2000/svg">
<path d="M3.59708 29.2803C0.39911 30.2071 -0.119858 33.5284 0.0204034 35.0732V36H31.9796V35.0732C32.1197 33.5182 31.6014 30.175 28.4073 29.242C25.2132 28.309 21.893 27.2982 20.6322 26.9095L20.4221 24.1105C21.1225 23.644 22.6075 21.9646 22.9437 18.979C23.5741 19.2122 25.1712 18.5592 25.6755 15.9468C26.3059 12.6813 25.2552 12.448 24.2046 12.9145C24.5589 11.3411 25.0991 7.86989 24.4259 6.57229L23.3739 4.71858C23.5142 4.79581 23.963 5.13566 24.6363 5.87715C24.5661 4.95029 24.0051 3.05023 22.3219 2.86486C22.1116 2.86486 21.5645 2.9112 21.0596 3.09657C20.6388 1.86076 19.2081 -0.471857 16.8517 0.0842583C16.0102 0.315949 15.0283 0.238735 14.5374 0.0842583C14.8741 0.640373 15.6595 0.779402 16.0102 0.779402C15.8699 0.856635 15.2528 0.918415 13.9062 0.547672C12.5597 0.176928 10.1192 1.47454 9.06722 2.16969C9.90879 1.98432 10.6802 2.09245 10.9608 2.16969C10.4698 2.32417 9.15137 3.09655 7.80486 4.95027C6.45835 6.80398 7.24382 11.1293 7.80486 13.0603C6.7529 12.5968 5.70094 12.8286 6.33212 16.0726C6.83706 18.6678 8.43604 19.3166 9.06722 19.0848C9.40385 22.0508 10.8906 23.7191 11.5919 24.1826L11.3815 26.9631C10.1192 27.3493 6.79504 28.3534 3.59708 29.2803Z" fill="#B2B2B2"/>
</svg>
